<svg xmlns="http://www.w3.org/2000/svg" width="460.978" height="187" viewBox="0 0 460.978 187"><g transform="translate(2443.978 59)"><g transform="translate(-2444 -86.721)"><path d="M296.939,122.081a9.49,9.49,0,0,1-9.494,9.5H174.563a9.429,9.429,0,0,1-6.82-2.9l-74.5-76.941L16.229,128.8A9.5,9.5,0,0,1,2.8,115.373L86.638,31.488a9.49,9.49,0,0,1,13.534.107L122,54.147h58.52V27.721h25.187V54.147h30.558a9.509,9.509,0,0,1,7.144,3.235l51.18,58.44A9.495,9.495,0,0,1,296.939,122.081Zm-229.88-3.3H87.775V98.052H67.059Zm31.235,0h20.714V98.052H98.294ZM67.059,148.445H87.775V127.716H67.059Zm31.235.107h20.714V127.82H98.294Z" fill="#fff"/></g><text transform="translate(-2316 109)" fill="#fff" font-size="72" font-family="SegoeUI-Bold, Segoe UI" font-weight="700"><tspan x="0" y="0">اشراقة هوم</tspan></text></g></svg>